<?xml version="1.0" encoding="UTF-8" standalone="no"?>
<svg version="1.1" x="0px" y="0px" viewBox="0 0 180 180" width="180" height="180" xmlns="http://www.w3.org/2000/svg"
  xmlns:svg="http://www.w3.org/2000/svg">
  <g style="fill:#ffaff3">
    <rect width="180" height="180" x="0" y="0" />
  </g>
  <g style="fill:#282828">
    <path
      d="m 111.51619,94.618648 c -5.55162,2.23751 -20.043941,6.148652 -15.933441,-4.21875 2.81225,-5.63637 11.271291,-5.48944 17.004071,-5.65797 6.44487,-0.97564 13.41527,0.67088 19.55937,-1.15328 5.17665,1.02251 11.82241,0.43834 17.82375,-0.0762 7.14969,-0.47347 13.48403,-1.38472 20.57062,0.22984 4.33487,1.96893 3.17794,6.19922 -1.54453,5.26703 -3.81172,1.93334 -7.2421,0.10593 -10.83984,2.82938 -6.75072,-1.13842 -14.19425,2.05756 -21.38375,1.57375 -6.75842,0.38902 -13.56899,1.38077 -20.2725,1.24625 -1.60749,0.0491 -3.58027,1.09423 -4.98375,-0.04 z" />
    <path
      d="m 28.526189,158.70865 c -2.35074,-0.87503 -9.76702,5.61904 -7.46,-1.49 5.55266,-4.78311 11.24348,-9.4746 16.72545,-14.35709 14.51528,-12.59387 30.29062,-23.88319 43.1783,-38.21291 8.91058,-1.7879 6.37644,12.31543 -0.47297,14.53516 -4.69046,5.23922 -10.86328,9.43273 -16.44,13.92156 -6.56214,5.12145 -11.34149,9.25149 -17.83703,13.55578 -6.30958,4.51566 -10.47639,6.3728 -16.7592,11.45662 z" />
    <path
      d="m 21.936189,53.908648 c -2.46439,-2.61289 -5.85167,-4.84322 -8.38625,-7.47125 -4.09197,-0.18959 -10.42811,-11.18543 -1.95625,-8.53125 6.42514,3.13445 12.21185,7.69876 18.09,11.21875 8.6009,4.95538 16.2413,11.30848 24.31766,16.97156 4.97124,5.01613 18.83988,8.82451 13.29484,17.73469 -6.30187,7.09948 -11.38548,-6.65546 -17.85,-8.3725 -5.56701,-6.13452 -13.07303,-10.66233 -19.65594,-15.77391 -2.78486,-1.71195 -5.26127,-3.82444 -7.85406,-5.77609 z" />
    <path
      d="m 91.926189,162.05865 c -2.54588,7.01667 -5.34535,-3.35066 -7.1,-4.33 -2.39598,-3.63211 -0.9862,-9.65976 -4.63844,-11.78516 -2.36665,-6.51884 -5.30171,-12.96392 -7.63534,-19.67364 -2.91093,-5.93251 -4.75042,-12.78901 -9.94622,-17.1712 -4.37656,-7.4377 10.02708,-12.587682 11.4,-3.19 2.9924,7.00884 6.53743,13.94616 8.50172,21.30219 2.24198,7.49945 5.73295,14.36787 6.77297,22.18843 1.7183,3.96133 1.95713,8.34184 2.64531,12.65938 z" />
    <path
      d="m 98.096189,13.278649 c 6.124321,3.521972 0.33258,13.146178 1.07,19.639998 -0.59568,6.772801 -2.13814,13.173701 -3.68,20.090001 -2.05957,8.9409 -2.10849,19.33663 -9.11,26.23 -9.00328,3.71066 -7.65146,-5.36048 -4.05875,-10.45375 2.72256,-7.70824 2.92127,-16.76221 7.34875,-23.50625 -1.36989,-4.44961 3.28981,-9.18434 1.33,-13.420001 3.36713,-4.62242 1.92529,-14.416581 5.84375,-18.308748 z" />
  </g>
</svg>